<?xml version="1.0" encoding="UTF-8" standalone="no"?>
<svg
   width="542.5pt"
   height="542.50531pt"
   version="1.1"
   viewBox="0 0 542.5 542.50531"
   id="svg116"
   sodipodi:docname="noun-mood-5077566.svg"
   xmlns:inkscape="http://www.inkscape.org/namespaces/inkscape"
   xmlns:sodipodi="http://sodipodi.sourceforge.net/DTD/sodipodi-0.dtd"
   xmlns="http://www.w3.org/2000/svg"
   xmlns:svg="http://www.w3.org/2000/svg">
  <sodipodi:namedview
     id="namedview118"
     pagecolor="#ffffff"
     bordercolor="#000000"
     borderopacity="0.25"
     inkscape:showpageshadow="2"
     inkscape:pageopacity="0.0"
     inkscape:pagecheckerboard="0"
     inkscape:deskcolor="#d1d1d1"
     inkscape:document-units="pt"
     showgrid="false" />
  <defs
     id="defs44" />
  <path
     d="M 87.500002,175 C 110.707,175 132.961,165.7812 149.371,149.371 165.781,132.9608 175,110.707 175,87.5 175,64.293 165.7812,42.039 149.371,25.629 132.9608,9.2190002 110.707,1.9073486e-7 87.500002,1.9073486e-7 64.293002,1.9073486e-7 42.039002,9.2188002 25.629002,25.629 9.2190017,42.0392 1.7166137e-6,64.293 1.7166137e-6,87.5 c 0,23.207 9.2187999833863,45.461 25.6290002833863,61.871 16.4102,16.41 38.664,25.629 61.871,25.629 z m 0,-157.5 C 106.066,17.5 123.871,24.875 136.996,38.004 150.125,51.129 157.5,68.934 157.5,87.5 c 0,18.566 -7.375,36.371 -20.504,49.496 -13.125,13.129 -30.93,20.504 -49.495998,20.504 -18.566,0 -36.371,-7.375 -49.496,-20.504 -13.129,-13.125 -20.504,-30.93 -20.504,-49.496 0,-18.566 7.375,-36.371 20.504,-49.496 13.125,-13.129 30.93,-20.504 49.496,-20.504 z"
     id="path46" />
  <path
     d="m 49.960002,120.75 c -0.82031,2.4414 -0.41016,5.1289 1.1016,7.2109 1.5117,2.0859 3.9375,3.3086 6.5117,3.2891 h 1.6641 c 3.3594,-0.23438 6.2852,-2.3789 7.5234,-5.5117 1.9258,-3.793 4.9102,-6.9414 8.5898,-9.0703 3.6836,-2.1289 7.9023,-3.1406 12.148,-2.918 4.2461,-0.22266 8.4648,0.78906 12.148,2.918 3.679698,2.1289 6.664098,5.2773 8.589798,9.0703 1.2383,3.1328 4.1641,5.2773 7.5234,5.5117 h 1.6641 c 2.5742,0.0195 5,-1.2031 6.5117,-3.2891 1.5117,-2.082 1.9219,-4.7695 1.1016,-7.2109 -3.0039,-7.4297 -8.2109,-13.766 -14.922,-18.145 -6.7109,-4.3828 -14.604998,-6.5977 -22.616998,-6.3555 -8.0117,-0.24219 -15.906,1.9727 -22.617,6.3555 -6.7109,4.3789 -11.918,10.715 -14.922,18.145 z"
     id="path48" />
  <path
     d="m 118.13,83.562 c 4.9062,-0.0078 9.7109,-1.3867 13.871,-3.9844 4.1601,-2.5977 7.5078,-6.3125 9.668,-10.715 1.25,-2.4805 1.1172,-5.4297 -0.34766,-7.7891 -1.46486,-2.3594 -4.0508,-3.7852 -6.8281,-3.7617 h -1.4883 c -2.8594,-0.17969 -5.5742,1.2773 -7,3.7617 -1.4609,3.0195 -4.5195,4.9375 -7.875,4.9375 -3.3555,0 -6.4141,-1.918 -7.875,-4.9375 -1.4258,-2.4844 -4.1406,-3.9414 -7,-3.7617 h -1.4883 c -2.777298,-0.02344 -5.363298,1.4023 -6.828098,3.7617 -1.4648,2.3594 -1.5977,5.3086 -0.34766,7.7891 2.1602,4.4023 5.507798,8.1172 9.667998,10.715 4.1602,2.5978 8.9648,3.9766 13.871,3.9844 z"
     id="path50" />
  <path
     d="m 80.410002,68.863 c 1.25,-2.4805 1.1172,-5.4297 -0.34766,-7.7891 -1.46486,-2.3594 -4.0508,-3.7852 -6.8281,-3.7617 h -1.4883 c -2.8984,-0.14844 -5.6211,1.3867 -7,3.9375 -1.4609,3.0195 -4.5195,4.9375 -7.875,4.9375 -3.3555,0 -6.4141,-1.918 -7.875,-4.9375 -1.4258,-2.4844 -4.1406,-3.9414 -7,-3.7617 h -1.4883 c -2.7773,-0.02344 -5.3633,1.4023 -6.8281,3.7578 -1.4648,2.3594 -1.5977,5.3125 -0.34766,7.793 2.9062,5.8828 7.9102,10.465 14.027,12.844 6.1172,2.3789 12.906,2.3789 19.023,0 6.1172,-2.3789 11.121,-6.9609 14.027,-12.844 z"
     id="path52" />
  <path
     d="M 455,1.9073486e-7 C 431.793,1.9073486e-7 409.539,9.2188002 393.129,25.629 376.719,42.0392 367.5,64.293 367.5,87.5 c 0,23.207 9.2188,45.461 25.629,61.871 C 409.5392,165.781 431.793,175 455,175 c 23.207,0 45.461,-9.2188 61.871,-25.629 C 533.281,132.9608 542.5,110.707 542.5,87.5 542.5,64.293 533.2812,42.039 516.871,25.629 500.4608,9.2190002 478.207,1.9073486e-7 455,1.9073486e-7 Z M 455,157.5 c -18.566,0 -36.371,-7.375 -49.496,-20.504 C 392.375,123.871 385,106.066 385,87.5 385,68.934 392.375,51.129 405.504,38.004 418.629,24.875 436.434,17.5 455,17.5 c 18.566,0 36.371,7.375 49.496,20.504 C 517.625,51.129 525,68.934 525,87.5 c 0,18.566 -7.375,36.371 -20.504,49.496 C 491.371,150.125 473.566,157.5 455,157.5 Z"
     id="path54" />
  <path
     d="m 271.25,175 c 23.207,0 45.461,-9.2188 61.871,-25.629 16.41,-16.4102 25.629,-38.664 25.629,-61.871 0,-23.207 -9.2188,-45.461 -25.629,-61.871 C 316.7108,9.2190002 294.457,1.9073486e-7 271.25,1.9073486e-7 248.043,1.9073486e-7 225.789,9.2188002 209.379,25.629 192.969,42.0392 183.75,64.293 183.75,87.5 c 0,23.207 9.2188,45.461 25.629,61.871 16.4102,16.41 38.664,25.629 61.871,25.629 z m 0,-157.5 c 18.566,0 36.371,7.375 49.496,20.504 13.129,13.125 20.504,30.93 20.504,49.496 0,18.566 -7.375,36.371 -20.504,49.496 -13.125,13.129 -30.93,20.504 -49.496,20.504 -18.566,0 -36.371,-7.375 -49.496,-20.504 -13.129,-13.125 -20.504,-30.93 -20.504,-49.496 0,-18.566 7.375,-36.371 20.504,-49.496 C 234.879,24.875 252.684,17.5 271.25,17.5 Z"
     id="path56" />
  <path
     d="m 250.51,101.76 c -1.2383,-3.1328 -4.1641,-5.2773 -7.5234,-5.5117 h -1.6641 c -2.5742,-0.0195 -5,1.2031 -6.5117,3.2891 -1.5117,2.082 -1.9219,4.7695 -1.1016,7.2109 4.3125,9.7539 12.246,17.445 22.129,21.449 9.8828,4.0039 20.938,4.0039 30.82,0 9.8828,-4.0039 17.816,-11.695 22.129,-21.449 0.82031,-2.4414 0.41016,-5.1289 -1.1016,-7.2109 -1.5117,-2.0859 -3.9375,-3.3086 -6.5117,-3.2891 h -1.6641 c -3.3594,0.23438 -6.2852,2.3789 -7.5234,5.5117 -2.8008,4.8945 -7.2422,8.6445 -12.535,10.578 -5.2969,1.9375 -11.109,1.9375 -16.406,0 -5.293,-1.9336 -9.7344,-5.6836 -12.535,-10.578 z"
     id="path58" />
  <path
     d="m 225.75,83.562 c 2.875,0.14062 5.582,-1.3477 7,-3.8516 1.4609,-3.0156 4.5195,-4.9336 7.875,-4.9336 3.3555,0 6.4141,1.918 7.875,4.9336 1.418,2.5039 4.125,3.9922 7,3.8516 h 1.4883 c 2.7812,-0.01172 5.3594,-1.457 6.8203,-3.8242 1.4609,-2.3672 1.5938,-5.3242 0.35547,-7.8125 -2.9062,-5.8867 -7.9102,-10.469 -14.027,-12.848 -6.1172,-2.375 -12.906,-2.375 -19.023,0 -6.1172,2.3789 -11.121,6.9609 -14.027,12.848 -1.2383,2.4883 -1.1055,5.4453 0.35547,7.8125 1.4609,2.3672 4.0391,3.8125 6.8203,3.8242 z"
     id="path60" />
  <path
     d="m 285.51,83.562 h 1.4883 c 2.875,0.14062 5.582,-1.3477 7,-3.8516 1.4609,-3.0156 4.5195,-4.9336 7.875,-4.9336 3.3555,0 6.4141,1.918 7.875,4.9336 1.418,2.5039 4.125,3.9922 7,3.8516 h 1.4883 c 2.7812,-0.01172 5.3594,-1.457 6.8203,-3.8242 1.4609,-2.3672 1.5938,-5.3242 0.35547,-7.8125 -2.9062,-5.8867 -7.9102,-10.469 -14.027,-12.848 -6.1172,-2.375 -12.906,-2.375 -19.023,0 -6.1172,2.3789 -11.121,6.9609 -14.027,12.848 -1.2383,2.4883 -1.1055,5.4453 0.35547,7.8125 1.4609,2.3672 4.0391,3.8125 6.8203,3.8242 z"
     id="path62" />
  <path
     d="m 428.75,105 h 52.5 c 4.832,0 8.75,4.832 8.75,8.75 0,4.832 -3.918,8.75 -8.75,8.75 h -52.5 c -4.832,0 -8.75,-4.832 -8.75,-8.75 0,-4.832 3.918,-8.75 8.75,-8.75 z"
     id="path64" />
  <path
     d="m 435.75,84 c 2.8984,-3.8672 2.1172,-9.3516 -1.75,-12.25 L 413,56 c -1.8555,-1.3906 -4.1914,-1.9922 -6.4883,-1.6602 -2.2969,0.32812 -4.3711,1.5547 -5.7617,3.4102 -2.8984,3.8672 -2.1172,9.3516 1.75,12.25 l 21,15.75 c 3.8672,2.8984 9.3516,2.1172 12.25,-1.75 z"
     id="path66" />
  <path
     d="m 497,56 -21,15.75 c -3.8672,2.8984 -4.6484,8.3828 -1.75,12.25 2.8984,3.8672 8.3828,4.6484 12.25,1.75 L 507.5,70 c 3.8672,-2.8984 4.6484,-8.3828 1.75,-12.25 C 506.3516,53.8828 500.8672,53.1016 497,56 Z"
     id="path68" />
  <path
     d="m 343.35,408.19 c 5.4102,0.94531 10.922,-1.0117 14.523,-5.1641 8.2266,-10.148 2.0117,-29.227 -10.238,-67.113 -2.1875,-6.7383 -4.5508,-14 -7,-21.699 -2.8477,-8.4102 -7.9648,-15.875 -14.793,-21.555 -6.8242,-5.6836 -15.09,-9.3672 -23.883,-10.645 10.258,-8.4609 16.559,-20.789 17.402,-34.055 0.84766,-13.27 -3.832,-26.301 -12.93,-35.996 -9.0977,-9.6953 -21.801,-15.195 -35.098,-15.195 -13.293,0 -25.996,5.5 -35.094,15.195 -9.0977,9.6953 -13.777,22.727 -12.934,35.996 0.84766,13.266 7.1484,25.594 17.402,34.055 -8.7695,1.2656 -17.02,4.9336 -23.832,10.605 -6.8086,5.668 -11.918,13.113 -14.754,21.508 -2.4492,7.7891 -4.8125,14.961 -7,21.789 -12.25,37.887 -18.461,56.875 -10.238,67.023 1.7461,2.0781 4.0078,3.6562 6.5586,4.5781 2.5508,0.92188 5.2969,1.1523 7.9688,0.67188 7.2617,-0.78906 16.188,-9.625 24.938,-21.352 -6.3867,67.551 -10.062,136.5 0,147.09 v 0.004 c 4.0625,4.9375 9.9688,8 16.344,8.4766 6.3789,0.48047 12.672,-1.668 17.43,-5.9414 5.7734,-4.2891 10.238,-16.625 13.648,-32.023 3.4141,15.398 7.875,27.824 13.648,32.113 h 0.004 c 4.4531,3.5391 9.8945,5.6172 15.574,5.9492 6.793,-0.37109 13.129,-3.5391 17.5,-8.75 9.8008,-10.586 6.125,-79.539 0,-147.09 8.6641,11.898 17.586,20.734 24.852,21.523 z M 271.248,214.38 c 8.1211,0 15.91,3.2266 21.656,8.9688 5.7422,5.7461 8.9688,13.535 8.9688,21.656 0,8.121 -3.2266,15.91 -8.9688,21.656 -5.7461,5.7422 -13.535,8.9688 -21.656,8.9688 -8.121,0 -15.91,-3.2266 -21.656,-8.9688 -5.7422,-5.7461 -8.9688,-13.535 -8.9688,-21.656 0,-8.121 3.2266,-15.91 8.9688,-21.656 5.7461,-5.7422 13.535,-8.9688 21.656,-8.9688 z M 313.6,346.94 c -2.0703,-3.5586 -6.3359,-5.1992 -10.254,-3.9336 -3.918,1.2617 -6.4258,5.0859 -6.0234,9.1836 7.9609,74.551 13.125,158.02 8.0508,170.27 -2.8867,3.0625 -4.8125,3.7617 -9.8867,0 -6.0391,-6.2109 -12.863,-49.961 -15.488,-87.234 0,-2.3203 -0.92188,-4.5469 -2.5625,-6.1875 -1.6406,-1.6406 -3.8672,-2.5625 -6.1875,-2.5625 -4.6016,-0.0117 -8.4297,3.543 -8.75,8.1367 -2.625,37.449 -9.4492,81.727 -15.312,87.5 -5.25,3.8516 -7.1758,3.2383 -10.062,0 -5.0742,-12.25 0,-95.727 8.0508,-170.27 v -0.004 c 0.45703,-4.1133 -2.0352,-7.9844 -5.9727,-9.2773 -3.9336,-1.2891 -8.2344,0.35547 -10.305,3.9414 -8.2031,15.621 -18.508,30.047 -30.625,42.875 2.9766,-16.398 7.3984,-32.504 13.215,-48.125 2.2734,-6.7383 4.6367,-14.086 7.0859,-21.875 7.5234,-23.977 40.863,-21.699 42.961,-21.523 h 20.125 c 1.4883,0 35,-2.3633 42.262,21.613 2.4492,7.6992 4.8125,15.051 7.0859,21.789 l 0.004,-0.004 c 5.8633,15.785 10.285,32.066 13.215,48.648 -12.039,-12.922 -22.336,-27.363 -30.625,-42.961 z"
     id="path70"
     inkscape:export-filename="mood.svg"
     inkscape:export-xdpi="96"
     inkscape:export-ydpi="96" />
</svg>
